<svg xmlns="http://www.w3.org/2000/svg" width="860" height="260" style="background:#0d1117;border-radius:8px;font-family:'Segoe UI',system-ui,sans-serif">
<defs><marker id="arr" markerWidth="7" markerHeight="7" refX="3.5" refY="3.5" orient="auto"><path d="M0,0 L7,3.5 L0,7 Z" fill="#30363d"/></marker></defs>
<text x="430" y="28" text-anchor="middle" fill="#00b4d8" font-size="13" font-weight="600" letter-spacing="1">RETAIL CLP SCRAPING PIPELINE</text>
<text x="430" y="246" text-anchor="middle" fill="#8b949e" font-size="10">Retailers: Dillards · David Jones · VinceCamuto · PetSupermarket · SnapAV · Soma · Billabong</text>
<rect x="30" y="104" width="136" height="80" rx="8" fill="#161b22" stroke="#00b4d8" stroke-width="1.4"/>
<text x="98" y="124" text-anchor="middle" fill="#00b4d8" font-size="18">🌐</text>
<text x="98" y="142" text-anchor="middle" fill="#e6edf3" font-size="11" font-weight="600">Seed URLs</text>
<text x="98" y="156" text-anchor="middle" fill="#8b949e" font-size="9">Base category pages</text>
<text x="98" y="169" text-anchor="middle" fill="#8b949e" font-size="9">per retailer</text>
<line x1="168" y1="144" x2="194" y2="144" stroke="#30363d" stroke-width="1.5" marker-end="url(#arr)"/>
<rect x="196" y="104" width="136" height="80" rx="8" fill="#161b22" stroke="#00b4d8" stroke-width="1.4"/>
<text x="264" y="124" text-anchor="middle" fill="#00b4d8" font-size="18">⚙️</text>
<text x="264" y="142" text-anchor="middle" fill="#e6edf3" font-size="11" font-weight="600">Filter Combos</text>
<text x="264" y="156" text-anchor="middle" fill="#8b949e" font-size="9">Programmatic filter</text>
<text x="264" y="169" text-anchor="middle" fill="#8b949e" font-size="9">combination generation</text>
<line x1="334" y1="144" x2="360" y2="144" stroke="#30363d" stroke-width="1.5" marker-end="url(#arr)"/>
<rect x="362" y="104" width="136" height="80" rx="8" fill="#161b22" stroke="#00b4d8" stroke-width="1.4"/>
<text x="430" y="124" text-anchor="middle" fill="#00b4d8" font-size="18">🔍</text>
<text x="430" y="142" text-anchor="middle" fill="#e6edf3" font-size="11" font-weight="600">Scrape CLPs</text>
<text x="430" y="156" text-anchor="middle" fill="#8b949e" font-size="9">DrissionPage / Playwright</text>
<text x="430" y="169" text-anchor="middle" fill="#8b949e" font-size="9">anti-bot bypass</text>
<line x1="500" y1="144" x2="526" y2="144" stroke="#30363d" stroke-width="1.5" marker-end="url(#arr)"/>
<rect x="528" y="104" width="136" height="80" rx="8" fill="#161b22" stroke="#00b4d8" stroke-width="1.4"/>
<text x="596" y="124" text-anchor="middle" fill="#00b4d8" font-size="18">📦</text>
<text x="596" y="142" text-anchor="middle" fill="#e6edf3" font-size="11" font-weight="600">Extract IDs</text>
<text x="596" y="156" text-anchor="middle" fill="#8b949e" font-size="9">Product IDs + noindex</text>
<text x="596" y="169" text-anchor="middle" fill="#8b949e" font-size="9">status per URL</text>
<line x1="666" y1="144" x2="692" y2="144" stroke="#30363d" stroke-width="1.5" marker-end="url(#arr)"/>
<rect x="694" y="104" width="136" height="80" rx="8" fill="#161b22" stroke="#00b4d8" stroke-width="1.4"/>
<text x="762" y="124" text-anchor="middle" fill="#00b4d8" font-size="18">📄</text>
<text x="762" y="142" text-anchor="middle" fill="#e6edf3" font-size="11" font-weight="600">JSONL / CSV</text>
<text x="762" y="156" text-anchor="middle" fill="#8b949e" font-size="9">Structured output for</text>
<text x="762" y="169" text-anchor="middle" fill="#8b949e" font-size="9">staging pipelines</text>
</svg>