<svg xmlns="http://www.w3.org/2000/svg" width="860" height="520" style="background:#0d1117;border-radius:8px;font-family:'Segoe UI',system-ui,sans-serif">
<text x="430" y="28" text-anchor="middle" fill="#00e5a0" font-size="13" font-weight="600" letter-spacing="1">LANGGRAPH STATE MACHINE  ·  14 NODES</text>
<defs>
  <marker id="arr" markerWidth="6" markerHeight="6" refX="3" refY="3" orient="auto">
    <path d="M0,0 L6,3 L0,6 Z" fill="#30363d"/>
  </marker>
  <marker id="arr2" markerWidth="6" markerHeight="6" refX="3" refY="3" orient="auto">
    <path d="M0,0 L6,3 L0,6 Z" fill="#00e5a0"/>
  </marker>
</defs>
<rect x="20" y="38" width="200" height="36" rx="6" fill="#161b22" stroke="#00b4d8" stroke-width="1.4"/>
<text x="30" y="57" dominant-baseline="middle" fill="#00b4d8" font-size="10" font-weight="700">01</text>
<text x="52" y="57" dominant-baseline="middle" fill="#e6edf3" font-size="11">Parse Staging Sheet</text>
<line x1="120" y1="74" x2="120" y2="92" stroke="#30363d" stroke-width="1.2" marker-end="url(#arr)"/>
<rect x="20" y="98" width="200" height="36" rx="6" fill="#161b22" stroke="#00b4d8" stroke-width="1.4"/>
<text x="30" y="117" dominant-baseline="middle" fill="#00b4d8" font-size="10" font-weight="700">02</text>
<text x="52" y="117" dominant-baseline="middle" fill="#e6edf3" font-size="11">Fetch Product Counts</text>
<line x1="120" y1="134" x2="120" y2="152" stroke="#30363d" stroke-width="1.2" marker-end="url(#arr)"/>
<rect x="20" y="158" width="200" height="36" rx="6" fill="#161b22" stroke="#00b4d8" stroke-width="1.4"/>
<text x="30" y="177" dominant-baseline="middle" fill="#00b4d8" font-size="10" font-weight="700">03</text>
<text x="52" y="177" dominant-baseline="middle" fill="#e6edf3" font-size="11">Sensicality Scoring</text>
<line x1="120" y1="194" x2="120" y2="212" stroke="#30363d" stroke-width="1.2" marker-end="url(#arr)"/>
<rect x="20" y="218" width="200" height="36" rx="6" fill="#161b22" stroke="#00b4d8" stroke-width="1.4"/>
<text x="30" y="237" dominant-baseline="middle" fill="#00b4d8" font-size="10" font-weight="700">04</text>
<text x="52" y="237" dominant-baseline="middle" fill="#e6edf3" font-size="11">Fetch Search Volume</text>
<line x1="120" y1="254" x2="120" y2="272" stroke="#30363d" stroke-width="1.2" marker-end="url(#arr)"/>
<rect x="20" y="278" width="200" height="36" rx="6" fill="#161b22" stroke="#00b4d8" stroke-width="1.4"/>
<text x="30" y="297" dominant-baseline="middle" fill="#00b4d8" font-size="10" font-weight="700">05</text>
<text x="52" y="297" dominant-baseline="middle" fill="#e6edf3" font-size="11">FAISS Nearest Neighbour</text>
<line x1="120" y1="314" x2="120" y2="332" stroke="#30363d" stroke-width="1.2" marker-end="url(#arr)"/>
<rect x="20" y="338" width="200" height="36" rx="6" fill="#161b22" stroke="#00b4d8" stroke-width="1.4"/>
<text x="30" y="357" dominant-baseline="middle" fill="#00b4d8" font-size="10" font-weight="700">06</text>
<text x="52" y="357" dominant-baseline="middle" fill="#e6edf3" font-size="11">Classify Duplicates</text>
<line x1="120" y1="374" x2="120" y2="392" stroke="#30363d" stroke-width="1.2" marker-end="url(#arr)"/>
<rect x="20" y="398" width="200" height="36" rx="6" fill="#161b22" stroke="#00b4d8" stroke-width="1.4"/>
<text x="30" y="417" dominant-baseline="middle" fill="#00b4d8" font-size="10" font-weight="700">07</text>
<text x="52" y="417" dominant-baseline="middle" fill="#e6edf3" font-size="11">Apply Deduplication</text>
<rect x="450" y="38" width="200" height="36" rx="6" fill="#161b22" stroke="#00e5a0" stroke-width="1.4"/>
<text x="460" y="57" dominant-baseline="middle" fill="#00e5a0" font-size="10" font-weight="700">08</text>
<text x="482" y="57" dominant-baseline="middle" fill="#e6edf3" font-size="11">Fetch Assortment</text>
<line x1="550" y1="74" x2="550" y2="92" stroke="#30363d" stroke-width="1.2" marker-end="url(#arr)"/>
<rect x="450" y="98" width="200" height="36" rx="6" fill="#161b22" stroke="#00e5a0" stroke-width="1.4"/>
<text x="460" y="117" dominant-baseline="middle" fill="#00e5a0" font-size="10" font-weight="700">09</text>
<text x="482" y="117" dominant-baseline="middle" fill="#e6edf3" font-size="11">Score Assortment (LLM)</text>
<line x1="550" y1="134" x2="550" y2="152" stroke="#30363d" stroke-width="1.2" marker-end="url(#arr)"/>
<rect x="450" y="158" width="200" height="36" rx="6" fill="#161b22" stroke="#00e5a0" stroke-width="1.4"/>
<text x="460" y="177" dominant-baseline="middle" fill="#00e5a0" font-size="10" font-weight="700">10</text>
<text x="482" y="177" dominant-baseline="middle" fill="#e6edf3" font-size="11">Filter by Score</text>
<line x1="550" y1="194" x2="550" y2="212" stroke="#30363d" stroke-width="1.2" marker-end="url(#arr)"/>
<rect x="450" y="218" width="200" height="36" rx="6" fill="#161b22" stroke="#00e5a0" stroke-width="1.4"/>
<text x="460" y="237" dominant-baseline="middle" fill="#00e5a0" font-size="10" font-weight="700">11</text>
<text x="482" y="237" dominant-baseline="middle" fill="#e6edf3" font-size="11">CLP Cannib. Check</text>
<line x1="550" y1="254" x2="550" y2="272" stroke="#30363d" stroke-width="1.2" marker-end="url(#arr)"/>
<rect x="450" y="278" width="200" height="36" rx="6" fill="#161b22" stroke="#00e5a0" stroke-width="1.4"/>
<text x="460" y="297" dominant-baseline="middle" fill="#00e5a0" font-size="10" font-weight="700">12</text>
<text x="482" y="297" dominant-baseline="middle" fill="#e6edf3" font-size="11">Regenerate Pages</text>
<line x1="550" y1="314" x2="550" y2="332" stroke="#30363d" stroke-width="1.2" marker-end="url(#arr)"/>
<rect x="450" y="338" width="200" height="36" rx="6" fill="#161b22" stroke="#00e5a0" stroke-width="1.4"/>
<text x="460" y="357" dominant-baseline="middle" fill="#00e5a0" font-size="10" font-weight="700">13</text>
<text x="482" y="357" dominant-baseline="middle" fill="#e6edf3" font-size="11">Final QA</text>
<line x1="550" y1="374" x2="550" y2="392" stroke="#30363d" stroke-width="1.2" marker-end="url(#arr)"/>
<rect x="450" y="398" width="200" height="36" rx="6" fill="#161b22" stroke="#00e5a0" stroke-width="1.4"/>
<text x="460" y="417" dominant-baseline="middle" fill="#00e5a0" font-size="10" font-weight="700">14</text>
<text x="482" y="417" dominant-baseline="middle" fill="#e6edf3" font-size="11">Export Results</text>
<path d="M220,416 L830,416 L830,56 L450,56" fill="none" stroke="#00e5a0" stroke-width="1.5" stroke-dasharray="4,3" marker-end="url(#arr2)"/>
</svg>