<svg xmlns="http://www.w3.org/2000/svg" viewBox="0 0 860 500" width="100%" style="height:auto;background:#0d1117;border-radius:8px;font-family:'Segoe UI',system-ui,sans-serif">
<text x="430" y="26" text-anchor="middle" fill="#00e5a0" font-size="13" font-weight="600" letter-spacing="1">LANGGRAPH STATE MACHINE  ·  14 NODES</text>
<defs>
  <marker id="arr" markerWidth="6" markerHeight="6" refX="3" refY="3" orient="auto">
    <path d="M0,0 L6,3 L0,6 Z" fill="#30363d"/>
  </marker>
  <marker id="arr2" markerWidth="6" markerHeight="6" refX="3" refY="3" orient="auto">
    <path d="M0,0 L6,3 L0,6 Z" fill="#00e5a0"/>
  </marker>
</defs>

<!-- Left column: nodes 01-07, teal border -->
<rect x="20" y="36" width="200" height="34" rx="6" fill="#161b22" stroke="#00b4d8" stroke-width="1.4"/>
<text x="30" y="54" dominant-baseline="middle" fill="#00b4d8" font-size="10" font-weight="700">01</text>
<text x="52" y="54" dominant-baseline="middle" fill="#e6edf3" font-size="11">Parse Staging Sheet</text>
<line x1="120" y1="70" x2="120" y2="86" stroke="#30363d" stroke-width="1.2" marker-end="url(#arr)"/>

<rect x="20" y="92" width="200" height="34" rx="6" fill="#161b22" stroke="#00b4d8" stroke-width="1.4"/>
<text x="30" y="110" dominant-baseline="middle" fill="#00b4d8" font-size="10" font-weight="700">02</text>
<text x="52" y="110" dominant-baseline="middle" fill="#e6edf3" font-size="11">Fetch Product Counts</text>
<line x1="120" y1="126" x2="120" y2="142" stroke="#30363d" stroke-width="1.2" marker-end="url(#arr)"/>

<rect x="20" y="148" width="200" height="34" rx="6" fill="#161b22" stroke="#00b4d8" stroke-width="1.4"/>
<text x="30" y="166" dominant-baseline="middle" fill="#00b4d8" font-size="10" font-weight="700">03</text>
<text x="52" y="166" dominant-baseline="middle" fill="#e6edf3" font-size="11">Sensicality Scoring</text>
<line x1="120" y1="182" x2="120" y2="198" stroke="#30363d" stroke-width="1.2" marker-end="url(#arr)"/>

<rect x="20" y="204" width="200" height="34" rx="6" fill="#161b22" stroke="#00b4d8" stroke-width="1.4"/>
<text x="30" y="222" dominant-baseline="middle" fill="#00b4d8" font-size="10" font-weight="700">04</text>
<text x="52" y="222" dominant-baseline="middle" fill="#e6edf3" font-size="11">Fetch Search Volume</text>
<line x1="120" y1="238" x2="120" y2="254" stroke="#30363d" stroke-width="1.2" marker-end="url(#arr)"/>

<rect x="20" y="260" width="200" height="34" rx="6" fill="#161b22" stroke="#00b4d8" stroke-width="1.4"/>
<text x="30" y="278" dominant-baseline="middle" fill="#00b4d8" font-size="10" font-weight="700">05</text>
<text x="52" y="278" dominant-baseline="middle" fill="#e6edf3" font-size="11">FAISS Nearest Neighbour</text>
<line x1="120" y1="294" x2="120" y2="310" stroke="#30363d" stroke-width="1.2" marker-end="url(#arr)"/>

<rect x="20" y="316" width="200" height="34" rx="6" fill="#161b22" stroke="#00b4d8" stroke-width="1.4"/>
<text x="30" y="334" dominant-baseline="middle" fill="#00b4d8" font-size="10" font-weight="700">06</text>
<text x="52" y="334" dominant-baseline="middle" fill="#e6edf3" font-size="11">Classify Duplicates</text>
<line x1="120" y1="350" x2="120" y2="366" stroke="#30363d" stroke-width="1.2" marker-end="url(#arr)"/>

<rect x="20" y="372" width="200" height="34" rx="6" fill="#161b22" stroke="#00b4d8" stroke-width="1.4"/>
<text x="30" y="390" dominant-baseline="middle" fill="#00b4d8" font-size="10" font-weight="700">07</text>
<text x="52" y="390" dominant-baseline="middle" fill="#e6edf3" font-size="11">Apply Deduplication</text>

<!-- Right column: nodes 08-14, green border -->
<rect x="440" y="36" width="200" height="34" rx="6" fill="#161b22" stroke="#00e5a0" stroke-width="1.4"/>
<text x="450" y="54" dominant-baseline="middle" fill="#00e5a0" font-size="10" font-weight="700">08</text>
<text x="472" y="54" dominant-baseline="middle" fill="#e6edf3" font-size="11">Fetch Assortment</text>
<line x1="540" y1="70" x2="540" y2="86" stroke="#30363d" stroke-width="1.2" marker-end="url(#arr)"/>

<rect x="440" y="92" width="200" height="34" rx="6" fill="#161b22" stroke="#00e5a0" stroke-width="1.4"/>
<text x="450" y="110" dominant-baseline="middle" fill="#00e5a0" font-size="10" font-weight="700">09</text>
<text x="472" y="110" dominant-baseline="middle" fill="#e6edf3" font-size="11">Score Assortment (LLM)</text>
<line x1="540" y1="126" x2="540" y2="142" stroke="#30363d" stroke-width="1.2" marker-end="url(#arr)"/>

<rect x="440" y="148" width="200" height="34" rx="6" fill="#161b22" stroke="#00e5a0" stroke-width="1.4"/>
<text x="450" y="166" dominant-baseline="middle" fill="#00e5a0" font-size="10" font-weight="700">10</text>
<text x="472" y="166" dominant-baseline="middle" fill="#e6edf3" font-size="11">Filter by Score</text>
<line x1="540" y1="182" x2="540" y2="198" stroke="#30363d" stroke-width="1.2" marker-end="url(#arr)"/>

<rect x="440" y="204" width="200" height="34" rx="6" fill="#161b22" stroke="#00e5a0" stroke-width="1.4"/>
<text x="450" y="222" dominant-baseline="middle" fill="#00e5a0" font-size="10" font-weight="700">11</text>
<text x="472" y="222" dominant-baseline="middle" fill="#e6edf3" font-size="11">CLP Cannibalization Check</text>
<line x1="540" y1="238" x2="540" y2="254" stroke="#30363d" stroke-width="1.2" marker-end="url(#arr)"/>

<rect x="440" y="260" width="200" height="34" rx="6" fill="#161b22" stroke="#00e5a0" stroke-width="1.4"/>
<text x="450" y="278" dominant-baseline="middle" fill="#00e5a0" font-size="10" font-weight="700">12</text>
<text x="472" y="278" dominant-baseline="middle" fill="#e6edf3" font-size="11">Regenerate Pages</text>
<line x1="540" y1="294" x2="540" y2="310" stroke="#30363d" stroke-width="1.2" marker-end="url(#arr)"/>

<rect x="440" y="316" width="200" height="34" rx="6" fill="#161b22" stroke="#00e5a0" stroke-width="1.4"/>
<text x="450" y="334" dominant-baseline="middle" fill="#00e5a0" font-size="10" font-weight="700">13</text>
<text x="472" y="334" dominant-baseline="middle" fill="#e6edf3" font-size="11">Final QA</text>
<line x1="540" y1="350" x2="540" y2="366" stroke="#30363d" stroke-width="1.2" marker-end="url(#arr)"/>

<rect x="440" y="372" width="200" height="34" rx="6" fill="#161b22" stroke="#00e5a0" stroke-width="1.4"/>
<text x="450" y="390" dominant-baseline="middle" fill="#00e5a0" font-size="10" font-weight="700">14</text>
<text x="472" y="390" dominant-baseline="middle" fill="#e6edf3" font-size="11">Export Results</text>

<!-- Connector: col1 bottom → right edge → top → col2 top -->
<path d="M220,389 L820,389 L820,53 L640,53" fill="none" stroke="#00e5a0" stroke-width="1.5" stroke-dasharray="4,3" marker-end="url(#arr2)"/>

<!-- Column labels -->
<text x="120" y="456" text-anchor="middle" fill="#00b4d8" font-size="10" font-weight="600">KEYWORD QA PIPELINE</text>
<text x="540" y="456" text-anchor="middle" fill="#00e5a0" font-size="10" font-weight="600">ASSORTMENT &amp; PAGE PIPELINE</text>
<line x1="20" y1="462" x2="220" y2="462" stroke="#00b4d8" stroke-width="0.8" opacity="0.5"/>
<line x1="440" y1="462" x2="640" y2="462" stroke="#00e5a0" stroke-width="0.8" opacity="0.5"/>

<!-- Tech tags -->
<rect x="20" y="470" width="200" height="20" rx="4" fill="#161b22" stroke="#30363d" stroke-width="1"/>
<text x="120" y="481" text-anchor="middle" fill="#8b949e" font-size="9">LangGraph · FAISS · OpenAI · aiohttp</text>
<rect x="440" y="470" width="200" height="20" rx="4" fill="#161b22" stroke="#30363d" stroke-width="1"/>
<text x="540" y="481" text-anchor="middle" fill="#8b949e" font-size="9">LLM-as-a-judge · DataForSEO · Pandas</text>
</svg>
