<svg xmlns="http://www.w3.org/2000/svg" viewBox="0 0 700 220" width="100%" style="height:auto;background:#0d1117;border-radius:8px;font-family:'Segoe UI',system-ui,sans-serif">
<defs><marker id="arr" markerWidth="7" markerHeight="7" refX="3.5" refY="3.5" orient="auto"><path d="M0,0 L7,3.5 L0,7 Z" fill="#30363d"/></marker></defs>
<text x="350" y="26" text-anchor="middle" fill="#00b4d8" font-size="13" font-weight="600" letter-spacing="1">RETAIL CLP SCRAPING PIPELINE</text>

<rect x="20" y="50" width="116" height="80" rx="8" fill="#161b22" stroke="#00b4d8" stroke-width="1.4"/>
<text x="78" y="76" text-anchor="middle" fill="#00b4d8" font-size="18">🌐</text>
<text x="78" y="96" text-anchor="middle" fill="#e6edf3" font-size="11" font-weight="600">Seed URLs</text>
<text x="78" y="112" text-anchor="middle" fill="#8b949e" font-size="9">Base category pages</text>

<line x1="138" y1="90" x2="156" y2="90" stroke="#30363d" stroke-width="1.5" marker-end="url(#arr)"/>

<rect x="158" y="50" width="116" height="80" rx="8" fill="#161b22" stroke="#00b4d8" stroke-width="1.4"/>
<text x="216" y="76" text-anchor="middle" fill="#00b4d8" font-size="18">⚙️</text>
<text x="216" y="96" text-anchor="middle" fill="#e6edf3" font-size="11" font-weight="600">Filter Combos</text>
<text x="216" y="112" text-anchor="middle" fill="#8b949e" font-size="9">Programmatic generation</text>

<line x1="276" y1="90" x2="294" y2="90" stroke="#30363d" stroke-width="1.5" marker-end="url(#arr)"/>

<rect x="296" y="50" width="116" height="80" rx="8" fill="#161b22" stroke="#00b4d8" stroke-width="1.4"/>
<text x="354" y="76" text-anchor="middle" fill="#00b4d8" font-size="18">🔍</text>
<text x="354" y="96" text-anchor="middle" fill="#e6edf3" font-size="11" font-weight="600">Scrape CLPs</text>
<text x="354" y="112" text-anchor="middle" fill="#8b949e" font-size="9">Playwright / DrissionPage</text>
<text x="354" y="124" text-anchor="middle" fill="#8b949e" font-size="9">anti-bot bypass</text>

<line x1="414" y1="90" x2="432" y2="90" stroke="#30363d" stroke-width="1.5" marker-end="url(#arr)"/>

<rect x="434" y="50" width="116" height="80" rx="8" fill="#161b22" stroke="#00b4d8" stroke-width="1.4"/>
<text x="492" y="76" text-anchor="middle" fill="#00b4d8" font-size="18">📦</text>
<text x="492" y="96" text-anchor="middle" fill="#e6edf3" font-size="11" font-weight="600">Extract IDs</text>
<text x="492" y="112" text-anchor="middle" fill="#8b949e" font-size="9">Product IDs + noindex</text>
<text x="492" y="124" text-anchor="middle" fill="#8b949e" font-size="9">status per URL</text>

<line x1="552" y1="90" x2="570" y2="90" stroke="#30363d" stroke-width="1.5" marker-end="url(#arr)"/>

<rect x="572" y="50" width="116" height="80" rx="8" fill="#161b22" stroke="#00b4d8" stroke-width="1.4"/>
<text x="630" y="76" text-anchor="middle" fill="#00b4d8" font-size="18">📄</text>
<text x="630" y="96" text-anchor="middle" fill="#e6edf3" font-size="11" font-weight="600">JSONL / CSV</text>
<text x="630" y="112" text-anchor="middle" fill="#8b949e" font-size="9">Structured output for</text>
<text x="630" y="124" text-anchor="middle" fill="#8b949e" font-size="9">staging pipelines</text>

<!-- Tech tags row -->
<rect x="20" y="150" width="660" height="22" rx="5" fill="#161b22" stroke="#30363d" stroke-width="1"/>
<text x="350" y="162" text-anchor="middle" fill="#8b949e" font-size="9">Python · Playwright · DrissionPage · BeautifulSoup · asyncio</text>

<!-- Retailer bubbles -->
<text x="350" y="198" text-anchor="middle" fill="#30363d" font-size="9">Dillards · David Jones · VinceCamuto · PetSupermarket · SnapAV · Soma · Billabong</text>
</svg>
